<?xml version="1.0" standalone="no"?>
<!DOCTYPE svg PUBLIC "-//W3C//DTD SVG 20010904//EN"
 "http://www.w3.org/TR/2001/REC-SVG-20010904/DTD/svg10.dtd">
<svg version="1.0" xmlns="http://www.w3.org/2000/svg"
 width="32" height="32" viewBox="0 0 1024.000000 1024.000000"
 preserveAspectRatio="xMidYMid meet">

<g transform="translate(0.000000,1024.000000) scale(0.100000,-0.100000)"
fill="#3B3B55" stroke="none">
<path d="M5020 9264 c-99 -36 -170 -108 -204 -207 -14 -43 -16 -187 -16 -1512
l0 -1464 -367 -3 c-359 -3 -369 -4 -418 -26 -66 -30 -138 -103 -166 -166 -31
-69 -32 -182 -3 -246 27 -60 993 -1412 1052 -1472 65 -67 127 -93 227 -92 90
0 146 21 209 77 20 18 265 354 546 747 557 780 547 764 537 886 -9 113 -77
212 -182 264 l-50 25 -372 3 -373 3 -2 1482 -3 1482 -25 50 c-32 64 -92 124
-155 154 -65 31 -172 38 -235 15z"/>
<path d="M8092 5105 c-458 -70 -846 -352 -1053 -765 -38 -75 -44 -95 -47 -167
-4 -72 -1 -88 23 -142 32 -70 93 -132 163 -164 73 -33 189 -31 263 6 70 34
128 95 170 179 92 182 235 311 421 379 123 45 210 55 305 34 309 -68 540 -319
583 -636 17 -125 6 -205 -38 -279 -99 -163 -240 -270 -430 -328 -53 -16 -287
-17 -3817 -22 l-3760 -5 -50 -25 c-64 -31 -124 -91 -155 -155 -35 -72 -35
-198 0 -270 31 -64 91 -124 155 -155 l50 -25 3780 0 c3645 0 3783 1 3865 19
286 62 488 167 685 358 173 166 308 385 342 553 24 123 22 373 -5 501 -59 277
-174 500 -360 695 -292 307 -722 470 -1090 414z"/>
<path d="M860 2223 c-141 -49 -229 -182 -218 -326 10 -115 79 -216 183 -267
l50 -25 4245 0 4245 0 50 25 c64 31 124 91 155 155 35 72 35 198 0 270 -31 64
-91 124 -155 155 l-50 25 -4230 2 c-3827 2 -4234 1 -4275 -14z"/>
<path d="M860 1263 c-141 -49 -229 -182 -218 -326 10 -115 79 -216 183 -267
l50 -25 4245 0 4245 0 50 25 c64 31 124 91 155 155 35 72 35 198 0 270 -31 64
-91 124 -155 155 l-50 25 -4230 2 c-3827 2 -4234 1 -4275 -14z"/>
</g>
</svg>
