<svg width="32" height="32" viewBox="0 0 32 32" fill="none" xmlns="http://www.w3.org/2000/svg">
<path d="M19.625 24.4162L15.625 30.4162C15.5146 30.582 15.3429 30.6971 15.1476 30.7363C14.9523 30.7754 14.7495 30.7354 14.5838 30.625C14.418 30.5146 14.3029 30.3429 14.2637 30.1476C14.2246 29.9523 14.2646 29.7495 14.375 29.5837L18.375 23.5837C18.4854 23.418 18.6571 23.3029 18.8524 23.2637C19.0477 23.2246 19.2505 23.2646 19.4163 23.375C19.582 23.4854 19.6971 23.6571 19.7363 23.8524C19.7754 24.0476 19.7354 24.2505 19.625 24.4162ZM28.75 11.5C28.747 13.9523 27.7715 16.3034 26.0375 18.0374C24.3034 19.7715 21.9523 20.747 19.5 20.75H16.4013L12.625 26.4162C12.5703 26.4983 12.5 26.5688 12.4181 26.6237C12.3362 26.6786 12.2443 26.7169 12.1476 26.7363C12.0509 26.7556 11.9514 26.7558 11.8546 26.7367C11.7579 26.7176 11.6658 26.6796 11.5838 26.625C11.5017 26.5703 11.4312 26.5 11.3763 26.4181C11.3213 26.3362 11.2831 26.2443 11.2637 26.1476C11.2443 26.0509 11.2442 25.9513 11.2633 25.8546C11.2824 25.7578 11.3203 25.6658 11.375 25.5837L14.5988 20.75H9.5C8.62789 20.7456 7.76636 20.5587 6.97081 20.2013C6.17526 19.844 5.4633 19.3241 4.88071 18.6751C4.29812 18.0261 3.85781 17.2624 3.58809 16.433C3.31836 15.6037 3.22519 14.727 3.31457 13.8595C3.40396 12.992 3.67391 12.1528 4.10707 11.3958C4.54023 10.6389 5.12702 9.98096 5.82969 9.46439C6.53237 8.94782 7.33537 8.58403 8.18707 8.39641C9.03877 8.20878 9.92031 8.20148 10.775 8.37498C11.5119 6.32326 12.949 4.59729 14.8333 3.50099C16.7176 2.40468 18.9283 2.00834 21.0761 2.38174C23.2239 2.75514 25.1711 3.87435 26.5748 5.54229C27.9786 7.21023 28.7488 9.31995 28.75 11.5ZM27.25 11.5C27.2434 9.48647 26.4543 7.55439 25.0492 6.11211C23.6442 4.66983 21.7334 3.83035 19.7208 3.77111C17.7081 3.71187 15.7513 4.4375 14.2639 5.79464C12.7765 7.15178 11.875 9.03409 11.75 11.0437C11.7384 11.2426 11.6483 11.4288 11.4994 11.5612C11.3505 11.6937 11.1552 11.7616 10.9563 11.75C10.7573 11.7384 10.5712 11.6482 10.4387 11.4994C10.3063 11.3505 10.2384 11.1551 10.25 10.9562C10.2721 10.5789 10.3168 10.2032 10.3838 9.83123C9.73461 9.7096 9.06724 9.72468 8.42426 9.8755C7.78128 10.0263 7.17681 10.3096 6.64946 10.7072C6.12211 11.1047 5.68347 11.6079 5.36154 12.1846C5.03961 12.7612 4.84147 13.3987 4.77977 14.0562C4.71807 14.7138 4.79418 15.377 5.00322 16.0035C5.21226 16.6299 5.54964 17.2059 5.99383 17.6947C6.43802 18.1834 6.97924 18.5742 7.58295 18.842C8.18665 19.1098 8.83957 19.2487 9.5 19.25H19.5C21.5547 19.2477 23.5246 18.4304 24.9775 16.9775C26.4304 15.5246 27.2477 13.5547 27.25 11.5Z" fill="#3B3B55"/>
</svg>
